<?xml version="1.0" encoding="iso-8859-1"?>
<!-- Uploaded to: SVG Repo, www.svgrepo.com, Generator: SVG Repo Mixer Tools -->
<!DOCTYPE svg PUBLIC "-//W3C//DTD SVG 1.1//EN" "http://www.w3.org/Graphics/SVG/1.1/DTD/svg11.dtd">
<svg fill="#000000" version="1.1" id="Capa_1" xmlns="http://www.w3.org/2000/svg" xmlns:xlink="http://www.w3.org/1999/xlink" 
	 width="80px"  viewBox="0 0 378.631 378.631"
	 xml:space="preserve">
<g>
	<g>
		<path d="M344.713,239.525c-21.189,1.307-49.051,22.477-75.932,34.648c-32.941,14.914-84.222,2.924-84.222,2.924
			c7.912-3.711,40.058-11.369,46.522-14.209c34.415-15.145,31.497-46.707,15.108-46.441c-21.654,0.363-34.365,5.679-77.564,11.57
			c-32.747,4.452-71.478,2.823-90.055,9.918c-26.221,10.016-68.449,77.408-68.449,77.408l65.287,63.287
			c0,0,40.425-39.818,60.099-39.818c44.826,0,46.645-0.611,88.263-2.863c17.695-0.949,21.387-1.674,31.521-5.086
			c53.955-18.243,111.881-66.82,112.947-72.668C370.698,244.664,355.897,238.829,344.713,239.525z"/>
		<path d="M156.964,154.085c0.117,3.867,2.877,7.055,6.52,7.844c-3.4,1.022-5.852,4.186-5.852,7.92c0,3.284,1.906,6.108,4.683,7.449
			c-2.776,1.341-4.683,4.163-4.683,7.448c0,4.58,3.708,8.296,8.274,8.296h5.054c1.569,8.714,9.185,15.323,18.354,15.323
			c9.163,0,16.772-6.609,18.333-15.323h5.065c4.567,0,8.282-3.716,8.282-8.296c0-3.285-1.924-6.107-4.695-7.448
			c2.771-1.342,4.695-4.165,4.695-7.449c0-3.72-2.445-6.855-5.821-7.909c3.651-0.79,6.409-3.978,6.521-7.844
			c0.482-15.672,8.392-27.278,16.043-38.5c9.156-13.446,18.641-27.355,18.643-51.868C256.379,28.587,226.297,0,189.315,0
			c-36.99,0-67.075,28.585-67.075,63.728c0,24.5,9.489,38.408,18.664,51.86C148.557,126.801,156.484,138.387,156.964,154.085z
			 M189.31,132.975l-10.286-58.522c-0.232-1.768,0.744-3.139,1.18-3.649c0.82-0.952,1.919-1.554,2.807-1.554
			c1.12,0,1.983,0.836,2.4,1.34c0.959,1.161,2.382,1.844,3.899,1.844c1.507,0,2.921-0.684,3.89-1.844
			c0.416-0.504,1.271-1.34,2.393-1.34c0.988,0,2.104,0.581,2.921,1.531c0.519,0.594,1.323,1.866,1.076,3.664L189.31,132.975z
			 M189.315,16.572c27.845,0,50.49,21.16,50.49,47.156c0,19.4-7.304,30.116-15.771,42.555c-7.03,10.325-15.561,22.816-18.151,39.282
			l-8.522-0.002l12.189-69.438c0.007-0.036,0.014-0.07,0.018-0.105c0.644-4.262-0.584-8.561-3.386-11.823
			c-2.71-3.166-6.665-5.053-10.59-5.053c-2.202,0-4.354,0.594-6.282,1.702c-1.948-1.107-4.101-1.702-6.3-1.702
			c-3.887,0-7.7,1.848-10.463,5.064c-2.852,3.318-4.13,7.625-3.507,11.8c0.006,0.038,0.014,0.076,0.022,0.117l12.185,69.433
			l-8.472-0.002c-2.587-16.476-11.139-28.98-18.194-39.305c-8.452-12.425-15.776-23.141-15.776-42.523
			C138.804,37.732,161.468,16.572,189.315,16.572z"/>
	</g>
</g>
</svg>